# xmcd
#
# Track frame offsets:
#	150
#	16525
#	20476
#	45186
#	66526
#	83800
#	97225
#	112328
#	132492
#	149493
#	168964
#	189043
#	197264
#	213959
#	228621
#	253079
#	267132
#	284029
#	301535
#	320747
#
# Disc length: 4374 seconds
#
# Revision: 2
# Processed by: cddbd v1.4PL0 Copyright (c) Steve Scherf et al.
# Submitted via: dBpowerAMP V4.0
#
DISCID=1e111414
DTITLE=Project Pat - Layin Da Smack Down
DYEAR=2002
DGENRE=Rap
TTITLE0=STILL RIDIN' CLEAN
TTITLE1=THE PORCH 3
TTITLE2=FIGHT
TTITLE3=WEAK NIGGAZ
TTITLE4=MAKE DAT AZZ CLAP (BACK CLAP) FEATURING JUVENILE
TTITLE5=CHOOSE U
TTITLE6=SMOKIN' OUT
TTITLE7=SHOW DEM GOLDS
TTITLE8=THIS PIMP
TTITLE9=ON NIGGA
TTITLE10=THAT DRANK
TTITLE11=MC FLYJO
TTITLE12=POSSE SONG
TTITLE13=90 DAYS
TTITLE14=SHUT YA MOUTH, BITCH
TTITLE15=TAKE DA CHARGE
TTITLE16=SMOKE and GET HIGH
TTITLE17=COUNTY JAIL
TTITLE18=I'M MO
TTITLE19=OUTRO
EXTD=HSI Productions\n
EXTT0=
EXTT1=
EXTT2=
EXTT3=
EXTT4=
EXTT5=
EXTT6=
EXTT7=
EXTT8=
EXTT9=
EXTT10=
EXTT11=
EXTT12=
EXTT13=
EXTT14=
EXTT15=
EXTT16=
EXTT17=
EXTT18=
EXTT19=
PLAYORDER=
